<svg viewBox="0 0 51.83 82" xmlns="http://www.w3.org/2000/svg" xmlns:xlink="http://www.w3.org/1999/xlink">
  <defs>
    <path d="M25.31 55.06l-15.14-8.74V39.5l.83-.48-.82-.6-.05-.7L.39 20.86l9.78 3.39V8.33l8.9 7.7L26.1-.23l7.05 16.28 8.9-7.71v15.92l9.77-3.39-9.78 16.94v.79l-.8.46.8.45v6.82l-15.14 8.74H27v23.05a2 2 0 1 1-2 0V55.06h.31zm-5.07-38.52l-.7 1.6L18.23 17l-6.79-5.88V26.05l-1.69-.6-6.54-2.26 8.02 13.9.15.25.02.29v.1l.36.26 1.58 1.16-1.7.98-.2.11v5.34l14.67 8.47 14.66-8.47v-5.34l-.15-.09-1.91-1.1 1.91-1.1.16-.1v-.39l.17-.3L49 23.2l-6.54 2.26-1.7.6V11.11L34 17l-1.31 1.14-.7-1.6-5.87-13.57-5.87 13.57z" id="a"/>
    <path d="M25.83 55.06l-10.29-3.98v-1.99l10.3 3.98 10.28-3.98v1.99l-10.29 3.98zm10.3-5.97l-10.3 3.98-10.29-3.98 10.3-3.98 10.28 3.98z" id="c"/>
    <filter x="-58.3%" y="-120.6%" width="216.6%" height="341.2%" filterUnits="objectBoundingBox" id="b">
      <feGaussianBlur stdDeviation="4" in="SourceGraphic"/>
    </filter>
  </defs>
  <g fill="none" fill-rule="evenodd">
    <use fill="#AA4922" xlink:href="#a"/>
    <use fill-opacity=".5" fill="#FFF" xlink:href="#a"/>
    <g filter="url(#b)">
      <use fill-opacity=".4" fill="#000" xlink:href="#c"/>
      <use fill="#AA4922" style="mix-blend-mode:normal" xlink:href="#c"/>
    </g>
    <g>
      <path fill="#CCC" d="M26.18 44.81l13.8-31.85-27.58 23.9z"/>
      <path fill="#666" d="M39.97 12.96v23.9L26.18 44.8z"/>
      <path fill="#CCC" d="M26.19 44.81l-13.8-31.85v23.9z"/>
      <path fill="#999" d="M12.4 12.96l27.57 23.9-13.79 7.95z"/>
      <path fill="#CCC" d="M39.97 36.85l-13.79 7.96-13.78-7.96 13.78-7.96z"/>
      <path fill="#666" d="M26.18 5v39.81l13.8-7.96z"/>
      <path fill="#999" d="M26.18 44.81L5.5 24.91l34.47 11.94z"/>
      <path fill="#999" d="M39.97 40.83L26.18 48.8 12.4 40.83l13.78-7.96z"/>
      <path fill="#666" d="M26.18 48.8v3.97l13.8-7.96v-3.98z"/>
      <path fill="#CCC" d="M12.4 44.81l13.78 7.96V48.8L12.4 40.83zM26.18 5L12.4 36.85l13.78 7.96z"/>
      <path fill="#CCC" d="M12.4 36.85l13.78 7.96 20.69-19.9z"/>
      <path fill="#666" d="M26.18 44.81l13.8-7.96 6.89-11.94z"/>
      <path fill="#CCC" d="M5.5 24.9l6.9 11.95 13.78 7.96z"/>
      <path fill="#AA4922" style="mix-blend-mode:color" d="M26.16 5l-6.27 14.48-7.52-6.52V27.3l-6.9-2.4 6.9 11.95 3.45 2-3.45 1.98v3.98l13.79 7.96 13.79-7.96v-3.98l-3.45-1.99 3.45-1.99 6.9-11.94-6.9 2.39V12.96l-7.52 6.52z"/>
    </g>
  </g>
</svg>