<svg viewBox="0 0 206.1 206.1" xmlns="http://www.w3.org/2000/svg">
  <path d="M147 73a63.3 63.3 0 0 1 2.6 58.2c-7 17-17.5 28.5-31 36.4-7.1 4-12.9 6.3-24 9.9-9.3 3-12.6 4.3-14.1 6.2a17.2 17.2 0 0 0-4.2 10.3l-.3 1.9a8 8 0 0 1-11.8 5.6c-4.4-2.5-9-8-11.4-14.7-3.2-8.4-3-18 1-28 4-9.7 9.7-15.3 21.7-23.9l1.7-1.2c8.5-6 12.4-9.2 17-14a75.8 75.8 0 0 0 15.2-24c3-7 5-18.7 6.3-31.4L92 54.9c-2 1.4-4.5 2.2-7 2.2-7.3 0-13.1-6.2-13.1-13.7 0-7.5 5.8-13.7 13-13.7 6 0 11 4.3 12.6 10l22.4 9 10.8-25.5c-1-2-1.5-4.2-1.5-6.5 0-7.5 5.8-13.6 13-13.6s13 6.1 13 13.6c0 6.4-4.2 11.8-10 13.3L134 56.7c4.7 4.4 9.3 9.8 13 16.3zm0 0z" stroke="#000" stroke-width="5" fill="#82B17A" fill-rule="nonzero" stroke-opacity=".8"/>
</svg>