<svg version="1" xmlns="http://www.w3.org/2000/svg" width="1365.333" height="1365.333" viewBox="0 0 1024.000000 1024.000000"><path d="M255 50c0 1.3 6 1.3 8 0 1.1-.7.2-1-3.2-1-2.7 0-4.8.4-4.8 1z"/><path d="M281.6 49.7c-2.1 2.1-25.3 2.9-33.4 1.1-.4-.1-1.9.5-3.4 1.2-2.2 1.1-3.3 1.1-5.5.1-2.1-1-2.8-.9-3.5.1-.6 1.1-1 1-1.7-.1-.6-.9-1.1-1-1.5-.2-.4.6-2.6 1-4.9.9-2.3-.1-5.8.2-7.7.6-1.9.5-4.5 1-5.6 1.1-1.2.2-3 .7-4 1.2-2.5 1.2-4.3 1.1-5.2-.4-.4-.7-1.6-1-2.7-.8-1.1.2-2.2.4-2.6.4-.3.1-2.2 1.6-4.2 3.5s-4.3 3.3-5 3.3c-2-.2-9.7 2.5-9.7 3.5 0 .4-.9.8-1.9.8-1.1 0-2.1.6-2.4 1.2-.3.8-.8.4-1.4-.9l-.8-2.3-6.3 3.2c-5.8 2.9-7.7 4.8-5.1 4.8.6 0 .1.9-1.2 1.9-1.8 1.4-2.7 1.6-3.7.9-.9-.8-2-.7-3.7.2-2.2 1.2-2.3 1.4-.8 2.5 1.5 1.1 1.4 1.3-.7 2-1.3.4-3.2 1.7-4.2 2.9-2 2.4-2.4 1.5-.7-1.7l1.2-2.1-2.9 1.8c-8.1 5.3-14.6 11.2-15.1 13.8-.3 1.5-1.4 3-2.4 3.3-1.1.4-1.9 1.3-1.9 2.1s-.5 1.4-1 1.4c-.6 0-2.7 1.6-4.7 3.5s-4 3.5-4.5 3.5c-.4 0-.8.8-.8 1.8s-1.8 3.5-4 5.5c-2.2 1.9-4 4.3-4 5.1 0 .9-.4 1.6-.9 1.6s-1.4 1.3-2.1 3c-.7 1.6-1.6 2.7-2.1 2.4-.5-.3-.9.1-.9.9s-.9 2.2-2 3.2-2 2.4-2 3.1c0 .7-.7 1.7-1.7 2.2-.9.5-1.7 1.9-1.8 3.2-.1 1.2-.8 2.6-1.6 3.1s-1 .9-.5.9.1.9-.8 1.9c-1 1.1-1.8 2.6-2 3.4-.1.8-.7 2.1-1.2 2.8-1.5 1.9-2.8 5.2-2.5 6.5.1.7-.5 1.4-1.3 1.7-.9.4-1.2 1.4-.9 2.7.4 1.5-.1 2.6-1.5 3.6-1.3.8-1.9 2.1-1.5 3 .3.8-.2 2.3-1.2 3.4-.9 1-1.4 2.3-1.1 2.8.3.4-.1 2-.9 3.5s-1 2.7-.4 2.7c.5 0 .9.5.9 1.1 0 .5-.4.8-.9.4-1-.6-1.6.9-2.6 6.7-.3 2.1-1 3.8-1.5 3.8s-.9 2.4-.9 5.3c.1 2.9-.4 7.1-1 9.3-.6 2.2-1 6-.9 8.5.2 6.5-.1 8.1-1.2 7.4-.6-.4-1 1.7-1 5.4 0 3.4.3 6 .7 5.9.5-.2.8.1.8.7 0 .5-.4.9-.9.7-.5-.2-.5.5-.1 1.5s.9 3.1 1.1 4.8l.3 3-.9-3c-.4-1.7-.7 58.9-.5 140 .1 78.6.3 143.4.3 144 0 .5-.2 88.1-.5 194.5s-.1 203.5.2 215.8l.7 22.2H956l-.3-199.2c-.2-109.6-.6-202.3-.9-206-.3-3.8-.2-6.5.3-6.2.5.3.8-73.4.7-175.3l-.3-175.8-.2 165.2L955 528l-16.3-.2-16.2-.2 15.8-.3 15.7-.4-.1-64c-.1-35.9-.6-64.2-1.1-64.5-.5-.3-.5-1.1.1-1.7.8-1.1.8-4.5 0-7.2-.2-.6.1-2 .5-3.3.5-1.4.3-2.8-.4-3.7-.9-1.1-.9-1.5-.1-1.5 1.1 0 .8-8.7-.4-9.8-.3-.3 0-1.1.6-1.8.7-.8.7-1.9.1-3.1-.6-1.1-.7-3.6-.3-6 .5-2.3.6-8.1.3-13-.5-10.3-.5-11.5-.4-16.8.1-2.2.1-10 .1-17.2 0-7.3.2-13.7.6-14.2.3-.5.1-1.2-.4-1.5-.5-.3-.8-8.2-.7-17.6.2-14.7 0-17-1.4-17-1.3 0-1.3-.2-.1-.9.8-.5 1.4-2.3 1.4-4 0-1.6.5-2.8 1-2.4.5.3.1-.7-.9-2.2-1.1-1.6-1.4-2.9-.7-3.3 1.1-.8 1.1-5.2 0-7-.5-.6-.5-1.7-.2-2.2.4-.6.6-6.1.5-12.3-.1-6.2-.2-16.9-.3-24-.1-7-.4-12.7-.8-12.7-.3 0-.7-3-.8-6.8-.1-3.7-.6-6.9-1.1-7-.6-.2-1-1.2-1-2.3 0-1-.4-1.9-.9-1.9s-.9-1-1-2.3c-.1-4.1-.7-7.7-1.4-8.3-.4-.4-.4-1.6-.1-2.8.3-1.3-.3-2.9-1.6-4.3-1.1-1.2-2-2.6-2-3.2 0-.5-1.1-3.3-2.5-6.3-1.3-2.9-2.2-6.1-1.9-7.1.3-.9 0-1.7-.6-1.7s-1.5-1-2-2.3c-1.2-2.6-3.1-5.6-8.8-13.7-2.3-3.4-4-6.5-3.7-7.1.4-.5-.2-.6-1.1-.2-1.4.5-1.6.3-1.1-1.1.4-1 .3-1.5-.3-1.1-.6.3-1.4-.5-2-1.9-.5-1.4-1.6-2.6-2.5-2.6-.8 0-1.5-.8-1.5-1.8 0-.9-1.2-2.8-2.5-4.1-1.4-1.3-2.5-2.7-2.5-3.2s-.7-.9-1.5-.9-1.5-.7-1.5-1.5-.5-1.5-1.1-1.5c-.7 0-2.2-1-3.4-2.3-1.2-1.2-4.5-3.8-7.3-5.7-2.9-1.9-5.2-4.1-5.2-4.8 0-.6-.6-1.2-1.4-1.2-.8 0-1.6-.7-2-1.5-.3-.8-1.5-1.5-2.6-1.5s-2-.4-2-1c0-.5-.3-.9-.7-.9-2.2.4-4.2-.3-6.1-1.9-1.1-.9-3-2.5-4.2-3.5-1.2-1-2.8-1.6-3.6-1.3-.8.3-1.4.2-1.4-.3 0-.4-1.8-1.4-4-2.1-2.2-.7-4-1.7-4-2.2 0-.4-.7-.8-1.5-.8s-1.5-.5-1.5-1c0-.6-1.3-1-3-1-1.6 0-3-.4-3-.9 0-.6-2-.9-4.5-.7-3.1.2-4.5-.2-4.5-1 0-.7-2.5-1.8-5.7-2.4-3.2-.7-7.4-1.6-9.3-2.1-2.2-.6-3.6-.5-3.8.1-.2.6-.9.7-1.5.3-2.2-1.3-12.1-3.2-13.2-2.4-.5.4-2.1.4-3.5 0-2.5-.7-2.5-.7.4-.8 2.4-.1 2.7-.3 1.6-1.6-1-1.2-3.7-1.5-12.6-1.5-6.9 0-11.4.4-11.4 1 0 .5 1.7 1 3.8 1.1 2 .1 4.8.5 6.2.9 2 .7 1.5.9-2.5.9-2.7 0-5.7.1-6.5.1-.8.1-4.4 0-8-.3-3.6-.2-7.2-.1-8.1.4-2 1-4.3-.5-3.6-2.5.6-1.4-2-1.6-26.5-1.6-23.3 0-27.4.2-28.9 1.6-2.6 2.4-7 2.6-7.6.3-.5-1.7-1.6-1.9-11.9-1.9s-11.4.2-12.4 2c-.6 1.1-1.9 2-3 2s-2.4-.9-3-2c-1.1-2-2.1-2-60.6-2-55.7 0-59.5.1-60.2 1.7-.4 1.1-1.9 1.9-3.7 2l-3 .2 2.8-1.5c1.5-.8 2.7-1.7 2.7-1.9 0-.3-3-.5-6.7-.5-4.3 0-6.3.4-5.4.9.7.5 1.1 1.3.8 1.7-.5.9-3.9.9-14.4.1-2.9-.2-5.3-.1-5.3.3 0 .7-31 .3-34.2-.4-1-.2-1.8.1-1.8.7 0 .9-.2.9-.8 0-.9-1.5-4.5-1.2-5.5.5-.7 1.1-1.3 1-3.4-.3-1.7-1.2-2.8-1.3-3.7-.6-.7.6-2.4 1-3.7 1-1.3-.1-5.1-.1-8.3-.1-3.3 0-5.4-.3-4.7-.7 1.2-.8-4.2-.7-12.6.3-2.4.2-4.6 0-4.9-.5-.3-.6-1.5-.7-2.7-.3-2.7.9-9 .9-10.4.1-.5-.4-1.3-.4-1.6-.1-.3.4-2.5.7-4.8.8-3.3.2-4.3-.1-4.7-1.6-.3-1.4-1.4-1.8-5.2-1.8-3.3 0-5 .5-5.4 1.5-.6 1.7-6.1 2.1-7.1.5-.4-.7-1.1-.8-1.8-.1-1.8 1.4-18.7.9-18.7-.6 0-1-7.9-1.3-36.1-1.3-31.9 0-36.3.2-37.3 1.6-.9 1.2-2.1 1.4-4.9.9-2-.4-3.7-1.1-3.7-1.6 0-1.1-3.4-1.2-4.4-.2zm289.5 1.7c-.7.8-2.1 1.2-3.3.8-2.1-.5-2.1-.6-.2-1.3 3.3-1.3 4.8-1.1 3.5.5zm-167.4 1.2c-.3.3-1.2.4-1.9.1-.8-.3-.5-.6.6-.6 1.1-.1 1.7.2 1.3.5zm225.8 40.8c49.5 9.8 88 47.9 97 95.8 1.9 10.3 2 17.5 1.7 105L728 365H560V260h-96v134h55.9c57.1 0 69.2.6 85.9 4 58 12 101 54.3 117.7 115.4 4.9 17.9 5 24.1 4.7 193.8l-.3 157.8H295V592h169v105h96V563h-56c-60.5 0-68.8-.5-87.7-5-59.6-14.3-103.8-58.2-116.7-116.1-4.5-20.1-4.8-30-4.3-140.9.3-90.5.5-104.4 2-110.6 9.1-40.8 32.7-71.2 67.9-87.9 10.5-5 24.7-9.1 35.9-10.4 4.1-.5 55.1-.8 113.4-.7 97.5.2 106.7.3 115 2zM213.2 194.1c1.5.8 2.7 1.7 2.8 2.1 0 .4 1 2.7 2 5.1 6.9 15.5 6.1 24.2-3.1 34.2-4.5 4.9-11 7.1-18.5 6.2-6.5-.7-11.5-4.6-19.5-15.2l-7.1-9.4 1.8-5.3c2.3-6.9 10-14.7 17.4-17.7 4.4-1.7 7.1-2 13.5-1.8 4.4.2 9.2 1 10.7 1.8zm644.3-.7c2.2.6 4 1.6 4 2.1.1.6.8 2.4 1.7 4 2.9 5.4 5.8 15.3 5.8 19.6 0 5.1-5.1 15.1-9.4 18.4-6.2 4.6-16.2 5.8-22.5 2.6-4.5-2.3-10.8-8.7-15.8-15.9-2-2.8-4-5.2-4.5-5.2-1.5 0 .2-6 3-11.4 6.6-12.3 23.3-18.6 37.7-14.2zM882 239c0 .5-.7 1-1.6 1-.8 0-1.2-.5-.9-1 .3-.6 1-1 1.6-1 .5 0 .9.4.9 1zm-2.9 5.3c-.8.8-1.1.7-1.1-.4 0-.9.3-1.9.7-2.3.4-.4.9-.2 1.1.4.3.7-.1 1.7-.7 2.3zm-809.4 7.4c-.3 1-.5.2-.5-1.7s.2-2.7.5-1.8c.2 1 .2 2.6 0 3.5zm803.3-.8c0 .9-5.2 4.7-5.9 4.2-.2-.1-.7.3-1.2 1.1-.5.7-1.3 1.3-1.9 1.3-.6 0-1.4.6-1.9 1.4-.5.8-3.5 1.5-8.2 1.7-6.8.4-7.2.3-5.5-1.1 1.1-.8 3.5-1.5 5.4-1.5 3.6 0 13.2-4.1 15.2-6.5 1.4-1.6 4-2 4-.6zm-802.8 8.3c-.9.9-1.2.7-1.2-1.2s.3-2.1 1.2-1.2c.9.9.9 1.5 0 2.4zM196 259c1.2.8 1.1 1-.7 1-1.2 0-2.5-.5-2.8-1-.8-1.3 1.5-1.3 3.5 0zm7 .4c0 .2-1.1.6-2.5.8-1.4.3-2.5.1-2.5-.3 0-.5 1.1-.9 2.5-.9s2.5.2 2.5.4zM69.7 284.7c-.3 1-.5.2-.5-1.7s.2-2.7.5-1.8c.2 1 .2 2.6 0 3.5zm0 41.5c-.3.7-.5.2-.5-1.2s.2-1.9.5-1.3c.2.7.2 1.9 0 2.5zm0 58c-.3.8-.6.5-.6-.6-.1-1.1.2-1.7.5-1.3.3.3.4 1.2.1 1.9zm0 15c-.3.7-.5.2-.5-1.2s.2-1.9.5-1.3c.2.7.2 1.9 0 2.5zm673.6 128.5c-.7.2-1.9.2-2.5 0-.7-.3-.2-.5 1.2-.5s1.9.2 1.3.5zm14.5 0c-1.5.2-4.2.2-6 0-1.8-.2-.6-.4 2.7-.4 3.3 0 4.8.2 3.3.4zm8 0c-1 .2-2.6.2-3.5 0-1-.3-.2-.5 1.7-.5s2.7.2 1.8.5zm8.5 0c-.7.2-1.9.2-2.5 0-.7-.3-.2-.5 1.2-.5s1.9.2 1.3.5zm10.5 0c-1.5.2-4.2.2-6 0-1.8-.2-.6-.4 2.7-.4 3.3 0 4.8.2 3.3.4zm31.9-.1c-.3.3-1.2.4-1.9.1-.8-.3-.5-.6.6-.6 1.1-.1 1.7.2 1.3.5zm9 0c-.3.3-1.2.4-1.9.1-.8-.3-.5-.6.6-.6 1.1-.1 1.7.2 1.3.5zm11 0c-.3.3-1.2.4-1.9.1-.8-.3-.5-.6.6-.6 1.1-.1 1.7.2 1.3.5zm8.6.1c-1.3.2-3.3.2-4.5 0-1.3-.2-.3-.4 2.2-.4s3.5.2 2.3.4zm7.5 0c-1 .2-2.6.2-3.5 0-1-.3-.2-.5 1.7-.5s2.7.2 1.8.5zm19 0c-2.1.2-5.5.2-7.5 0-2.1-.2-.4-.4 3.7-.4 4.1 0 5.8.2 3.8.4zm19.5 0c-1.8.2-4.8.2-6.5 0-1.8-.2-.4-.4 3.2-.4s5 .2 3.3.4zm11.5 0c-1 .2-2.6.2-3.5 0-1-.3-.2-.5 1.7-.5s2.7.2 1.8.5zm14.9 0c-2 .2-5.2.2-7 0-1.7-.2 0-.4 3.8-.4 3.9 0 5.3.2 3.2.4zm8.6 21c-.7.2-1.9.2-2.5 0-.7-.3-.2-.5 1.2-.5s1.9.2 1.3.5zm22 0c-.7.2-2.1.2-3 0-1-.3-.4-.5 1.2-.5 1.7 0 2.4.2 1.8.5zM840.8 777.1c-.2.6 3.4 3 7.9 5.3 4.5 2.2 9.1 5 10.4 6.1 2 1.9 7.4 12.3 6.7 13.1-.2.2-2.2-2.7-4.3-6.3-2.2-3.6-4.3-6.5-4.7-6.5-.5.1-4.7.2-9.6.2h-8.7l-4.7 8-4.7 8 3.5 6.2c1.9 3.3 3.3 6.2 3.1 6.4-.6.7-7.6-9.6-12.2-17.9l-4.3-7.7 2.5-3.8c3.2-4.7 5.6-6.8 11.8-9.8 5.5-2.6 7.6-3 7.3-1.3zm-647.2.8c.5.6 4.3 2.6 8.4 4.6 9.3 4.6 11.5 6.5 15.1 13.7 3.9 7.8 2.8 7.3-1.8-.7l-3.7-6.5h-19.1l-4.8 8.3c-3.6 6-4.6 8.6-3.9 9.7.5.8 2.4 4.2 4.2 7.5l3.3 6-3.4-3.9c-1.9-2.1-6-8.4-9.1-13.9-6.5-11.6-6.4-12.2 1.2-19.1 5.9-5.3 11.5-7.7 13.6-5.7z"/><path d="M187.8 214l-4.6 7.9 4.4 7.8 4.4 7.8 9.5.5 9.5.5 4.9-8.2 4.9-8.3-4.7-8-4.6-7.9-9.5-.1h-9.5l-4.7 8zM834.3 213.5c-2.4 4.1-4.3 7.9-4.3 8.5 0 .6 1.9 4.4 4.3 8.5l4.2 7.5h8.8c4.8 0 9 .1 9.4.2.3.2 2.8-3.4 5.4-8l4.7-8.2-4.6-8-4.7-8H848l-9.5.1-4.2 7.4zM287.8 49.7c.6.2 1.8.2 2.5 0 .6-.3.1-.5-1.3-.5-1.4 0-1.9.2-1.2.5z"/></svg>