<?xml version="1.0" encoding="UTF-8"?>
<svg width="48px" height="48px" viewBox="0 0 48 48" version="1.1" xmlns="http://www.w3.org/2000/svg" xmlns:xlink="http://www.w3.org/1999/xlink">
    <!-- Generator: Sketch 53.2 (72643) - https://sketchapp.com -->
    <title>Marker/2/Normal</title>
    <desc>Created with Sketch.</desc>
    <g id="Marker/2/Normal" stroke="none" stroke-width="1" fill="none" fill-rule="evenodd">
        <g id="Group-3" transform="translate(10.000000, 8.000163)">
            <polygon id="Fill-4" fill="#999999" points="27.2780488 27.5668618 13.6390244 35.4400325 0 27.5668618 13.6390244 19.690439"></polygon>
            <polygon id="Fill-5" fill="#666666" points="13.6388618 35.4401626 13.6388618 39.378374 27.2782114 31.5022764 27.2782114 27.5669919"></polygon>
            <polygon id="Fill-6" fill="#CCCCCC" points="0.000130081301 31.5021138 13.6388293 39.3785366 13.6388293 35.44 0.000130081301 27.5668293"></polygon>
            <polygon id="Fill-7" fill="#CCCCCC" points="27.2780488 23.6296585 13.6390244 31.5028293 0 23.6296585 13.6390244 15.7532358"></polygon>
            <polygon id="Fill-8" fill="#CCCCCC" points="13.6388943 31.5027967 13.6382439 3.25203252e-05 0.000195121951 23.629626"></polygon>
            <polygon id="Fill-9" fill="#666666" points="13.6382439 -7.10542736e-15 27.2779187 23.6295935 13.6388943 31.5027642"></polygon>
        </g>
        <polygon id="Fill-2" fill="#E6E6E6" style="mix-blend-mode: color;" points="10.0390244 31.6295935 13.4484553 33.5980488 10.0390244 35.5668293 10.0390244 39.5017886 23.6780488 47.3785366 37.3170732 39.5017886 37.3170732 35.5668293 33.9076423 33.5980488 37.3170732 31.6295935 23.6770732 8"></polygon>
    </g>
</svg>