<?xml version="1.0" encoding="UTF-8"?>
<svg width="48px" height="48px" viewBox="0 0 48 48" version="1.1" xmlns="http://www.w3.org/2000/svg" xmlns:xlink="http://www.w3.org/1999/xlink">
    <!-- Generator: Sketch 53.2 (72643) - https://sketchapp.com -->
    <title>Marker/2/Pure</title>
    <desc>Created with Sketch.</desc>
    <g id="Marker/2/Pure" stroke="none" stroke-width="1" fill="none" fill-rule="evenodd">
        <g id="Group-4" transform="translate(3.000000, 0.000000)">
            <polygon id="Fill-10" fill="#CCCCCC" points="21.6837589 39.8118247 35.4738959 7.96218082 7.89526575 31.8523726"></polygon>
            <polygon id="Fill-11" fill="#666666" points="35.4739945 7.96218082 35.4720219 31.8523726 21.6838575 39.8118247"></polygon>
            <polygon id="Fill-12" fill="#CCCCCC" points="21.6850411 39.8118247 7.89490411 7.96218082 7.89687671 31.8523726"></polygon>
            <polygon id="Fill-13" fill="#999999" points="7.89480548 7.96218082 35.4737644 31.8523726 21.6849425 39.8118247"></polygon>
            <polygon id="Fill-14" fill="#CCCCCC" points="35.4730411 31.8512548 21.6845479 39.8107068 7.89605479 31.8512548 21.6845479 23.8885151"></polygon>
            <polygon id="Fill-15" fill="#666666" points="21.6845479 0 21.6845479 39.810411 35.4730411 31.8509589"></polygon>
            <polygon id="Fill-16" fill="#999999" points="21.6847123 39.8121534 1 19.9053041 35.4732055 31.8527014"></polygon>
            <polygon id="Fill-17" fill="#999999" points="35.4730411 35.8316055 21.6845479 43.7910575 7.89605479 35.8316055 21.6845479 27.8688658"></polygon>
            <polygon id="Fill-18" fill="#666666" points="21.6845479 43.791189 21.6845479 47.7728877 35.4730411 39.8101479 35.4730411 35.831737"></polygon>
            <polygon id="Fill-19" fill="#CCCCCC" points="7.89605479 39.8102795 21.6845479 47.7730192 21.6845479 43.7913205 7.89605479 35.8318685"></polygon>
            <polygon id="Fill-20" fill="#CCCCCC" points="21.6845479 0 7.89605479 31.8509589 21.6845479 39.810411"></polygon>
            <polygon id="Fill-21" fill="#CCCCCC" points="7.8957589 31.8526027 21.6845808 39.8120548 42.3689644 19.9055342"></polygon>
            <polygon id="Fill-22" fill="#666666" points="21.6845479 39.8120548 35.4727123 31.8526027 42.3689315 19.9055342"></polygon>
            <polygon id="Fill-23" fill="#CCCCCC" points="1 19.9053699 7.89654795 31.8527671 21.6847123 39.8122192"></polygon>
            <polygon id="Fill-3" fill="#E6E6E6" style="mix-blend-mode: color;" points="21.6591014 0 15.3911562 14.4782466 7.86896438 7.96208219 7.87027945 22.2953425 0.974389041 19.9055342 7.86995068 31.8516164 7.86929315 31.852274 7.87027945 31.8526027 7.86995068 31.8526027 11.3160877 33.8419726 7.87060822 35.8316712 7.87060822 39.810411 21.6591014 47.7728219 35.4472658 39.810411 35.4472658 35.8316712 32.0017863 33.8419726 35.4479233 31.8526027 35.4475945 31.8526027 35.4479233 31.852274 35.4475945 31.8519452 42.3431562 19.9055342 35.4472658 22.2953425 35.4485808 7.96208219 27.926389 14.4779178"></polygon>
        </g>
    </g>
</svg>