
<svg viewBox="0 0 20 38" version="1.1" xmlns="http://www.w3.org/2000/svg" xmlns:xlink="http://www.w3.org/1999/xlink">
    <g id="Handoff" stroke="none" stroke-width="1" fill="none" fill-rule="evenodd">
        <g id="Web" transform="translate(-97.000000, -989.000000)" fill="#343434" fill-rule="nonzero">
            <g id="Slugs" transform="translate(24.000000, 912.000000)">
                <g id="Toggles" transform="translate(47.000000, 68.000000)">
                    <g id="Group-7">
                        <g id="Stacked-Group" transform="translate(12.000000, 8.000000)">
                            <g id="Icons/Nodes/Impure-2" transform="translate(4.000000, 0.000000)">
                                <g id="Icons/Slug">
                                    <path d="M28.109603,14.4126678 C27.206155,12.8433932 26.1105508,11.7383529 25.4128413,11.128143 L27.8446736,5.39534409 C28.852778,5.26252193 29.6359856,4.35092441 29.6359856,3.24759974 C29.6359856,2.05277218 28.7188121,1.08069697 27.5913249,1.08069697 C26.4635518,1.08069697 25.5460924,2.05277218 25.5460924,3.24745676 C25.5460924,3.70211174 25.6796294,4.12388287 25.906385,4.47273763 L23.5300264,10.075002 L18.4982254,8.07180357 C18.3388102,7.0443977 17.4971266,6.25732989 16.4830173,6.25732989 C15.3552442,6.25732989 14.4377848,7.22926213 14.4377848,8.42380374 C14.4377848,9.61834535 15.3552442,10.5901346 16.4830173,10.5901346 C16.9759891,10.5901346 17.4287854,10.4042694 17.7823583,10.0951612 L22.9717158,12.1609819 C22.8275988,13.6559103 22.4404272,16.9384334 21.6840986,18.7647739 C19.9198086,23.0242333 17.4478009,24.7808028 15.2666008,26.330633 C13.4940182,27.5903704 11.8196584,28.780051 10.9013411,30.9971373 C9.23198528,35.0265528 11.4300562,37.9570758 12.6890788,38.6752305 C12.8532121,38.768878 13.0366468,38.8160591 13.2203674,38.8160591 C13.3766372,38.8160591 13.5330499,38.7820315 13.6781678,38.7134043 C13.9944247,38.5641402 14.2180348,38.2699013 14.2770828,37.9251927 C14.2965272,37.8122439 14.3138269,37.694005 14.3318416,37.570762 C14.4303501,36.8934977 14.5322901,36.1932146 15.2467275,35.3286553 C15.7022403,34.7776364 16.858894,34.4056199 18.1985535,33.9748415 C21.3127971,32.9733138 26.019048,31.4599418 28.5794132,25.2783498 C30.5804669,20.4478551 29.4285314,16.7033854 28.109603,14.4126678 L28.109603,14.4126678 Z" id="Shape"></path>
                                </g>
                            </g>
                        </g>
                    </g>
                </g>
            </g>
        </g>
    </g>
</svg>